REM DIRINDEX 1\2,1\3,1\4,1\5,1\6
REM DIRNAME folder01,folder02,folder03,folder04,folder05,folder06
TITLE ""
FILE "Disc6Track30.mp3" MP3
  TRACK 01 AUDIO
    TITLE "3:cjc030_11352"
    INDEX 01 00:00:00
  TRACK 02 AUDIO
    TITLE "0:"
    INDEX 01 00:01:21
  TRACK 03 AUDIO
    TITLE "4:cjc030_11353"
    INDEX 01 00:01:22
  TRACK 04 AUDIO
    TITLE "0:"
    INDEX 01 00:02:20
  TRACK 05 AUDIO
    TITLE "5:cjc030_11354"
    INDEX 01 00:02:28
  TRACK 06 AUDIO
    TITLE "0:"
    INDEX 01 00:03:49
  TRACK 07 AUDIO
    TITLE "6:cjc030_11355"
    INDEX 01 00:03:59
  TRACK 08 AUDIO
    TITLE "0:"
    INDEX 01 00:09:40
  TRACK 09 AUDIO
    TITLE "3:cjc030_11356"
    INDEX 01 00:10:08
  TRACK 10 AUDIO
    TITLE "0:"
    INDEX 01 00:11:09
  TRACK 11 AUDIO
    TITLE "4:cjc030_11357"
    INDEX 01 00:11:19
  TRACK 12 AUDIO
    TITLE "0:"
    INDEX 01 00:13:06
  TRACK 13 AUDIO
    TITLE "5:cjc030_11358"
    INDEX 01 00:13:14
  TRACK 14 AUDIO
    TITLE "0:"
    INDEX 01 00:14:19
  TRACK 15 AUDIO
    TITLE "6:cjc030_11359"
    INDEX 01 00:14:29
  TRACK 16 AUDIO
    TITLE "0:"
    INDEX 01 00:16:00
  TRACK 17 AUDIO
    TITLE "3:cjc030_11360"
    INDEX 01 00:16:48
  TRACK 18 AUDIO
    TITLE "0:"
    INDEX 01 00:17:57
  TRACK 19 AUDIO
    TITLE "4:cjc030_11361"
    INDEX 01 00:17:67
  TRACK 20 AUDIO
    TITLE "0:"
    INDEX 01 00:19:28
  TRACK 21 AUDIO
    TITLE "5:cjc030_11362"
    INDEX 01 00:19:34
  TRACK 22 AUDIO
    TITLE "0:"
    INDEX 01 00:20:43
  TRACK 23 AUDIO
    TITLE "6:cjc030_11363"
    INDEX 01 00:20:57
  TRACK 24 AUDIO
    TITLE "0:"
    INDEX 01 00:22:34
  TRACK 25 AUDIO
    TITLE "3:cjc030_11364"
    INDEX 01 00:23:06
  TRACK 26 AUDIO
    TITLE "0:"
    INDEX 01 00:24:02
  TRACK 27 AUDIO
    TITLE "4:cjc030_11365"
    INDEX 01 00:24:10
  TRACK 28 AUDIO
    TITLE "0:"
    INDEX 01 00:25:37
  TRACK 29 AUDIO
    TITLE "5:cjc030_11366"
    INDEX 01 00:25:45
  TRACK 30 AUDIO
    TITLE "0:"
    INDEX 01 00:26:40
  TRACK 31 AUDIO
    TITLE "6:cjc030_11367"
    INDEX 01 00:26:52
  TRACK 32 AUDIO
    TITLE "0:"
    INDEX 01 00:29:40
  TRACK 33 AUDIO
    TITLE "3:cjc030_11368"
    INDEX 01 00:30:12
  TRACK 34 AUDIO
    TITLE "0:"
    INDEX 01 00:31:29
  TRACK 35 AUDIO
    TITLE "4:cjc030_11369"
    INDEX 01 00:31:43
  TRACK 36 AUDIO
    TITLE "0:"
    INDEX 01 00:32:41
  TRACK 37 AUDIO
    TITLE "5:cjc030_11370"
    INDEX 01 00:32:48
  TRACK 38 AUDIO
    TITLE "0:"
    INDEX 01 00:33:69
  TRACK 39 AUDIO
    TITLE "3:cjc030_11371"
    INDEX 01 00:34:45
  TRACK 40 AUDIO
    TITLE "0:"
    INDEX 01 00:35:55
  TRACK 41 AUDIO
    TITLE "4:cjc030_11372"
    INDEX 01 00:35:64
  TRACK 42 AUDIO
    TITLE "0:"
    INDEX 01 00:36:60
  TRACK 43 AUDIO
    TITLE "5:cjc030_11373"
    INDEX 01 00:36:70
  TRACK 44 AUDIO
    TITLE "0:"
    INDEX 01 00:38:04
  TRACK 45 AUDIO
    TITLE "3:cjc030_11374"
    INDEX 01 00:38:57
  TRACK 46 AUDIO
    TITLE "0:"
    INDEX 01 00:40:07
  TRACK 47 AUDIO
    TITLE "4:cjc030_11375"
    INDEX 01 00:40:19
  TRACK 48 AUDIO
    TITLE "0:"
    INDEX 01 00:41:08
  TRACK 49 AUDIO
    TITLE "5:cjc030_11376"
    INDEX 01 00:41:16
  TRACK 50 AUDIO
    TITLE "0:"
    INDEX 01 00:42:47
  TRACK 51 AUDIO
    TITLE "3:cjc030_11377"
    INDEX 01 00:43:21
  TRACK 52 AUDIO
    TITLE "0:"
    INDEX 01 00:44:32
  TRACK 53 AUDIO
    TITLE "4:cjc030_11378"
    INDEX 01 00:44:44
  TRACK 54 AUDIO
    TITLE "0:"
    INDEX 01 00:46:23
  TRACK 55 AUDIO
    TITLE "5:cjc030_11379"
    INDEX 01 00:46:35
  TRACK 56 AUDIO
    TITLE "0:"
    INDEX 01 00:47:46
  TRACK 57 AUDIO
    TITLE "3:cjc030_11380"
    INDEX 01 00:48:22
  TRACK 58 AUDIO
    TITLE "0:"
    INDEX 01 00:49:16
  TRACK 59 AUDIO
    TITLE "4:cjc030_11381"
    INDEX 01 00:49:25
  TRACK 60 AUDIO
    TITLE "0:"
    INDEX 01 00:51:03
  TRACK 61 AUDIO
    TITLE "5:cjc030_11382"
    INDEX 01 00:51:15
  TRACK 62 AUDIO
    TITLE "0:"
    INDEX 01 00:52:08
  TRACK 63 AUDIO
    TITLE "6:cjc030_11383"
    INDEX 01 00:52:18
  TRACK 64 AUDIO
    TITLE "0:"
    INDEX 01 00:56:04
  TRACK 65 AUDIO
    TITLE "3:cjc030_11384"
    INDEX 01 00:56:47
  TRACK 66 AUDIO
    TITLE "0:"
    INDEX 01 00:57:54
  TRACK 67 AUDIO
    TITLE "4:cjc030_11385"
    INDEX 01 00:57:62
  TRACK 68 AUDIO
    TITLE "0:"
    INDEX 01 00:58:40
  TRACK 69 AUDIO
    TITLE "5:cjc030_11386"
    INDEX 01 00:58:46
  TRACK 70 AUDIO
    TITLE "0:"
    INDEX 01 00:59:55
  TRACK 71 AUDIO
    TITLE "3:cjc030_11387"
    INDEX 01 01:00:33
  TRACK 72 AUDIO
    TITLE "0:"
    INDEX 01 01:01:34
  TRACK 73 AUDIO
    TITLE "4:cjc030_11388"
    INDEX 01 01:01:46
  TRACK 74 AUDIO
    TITLE "0:"
    INDEX 01 01:02:24
  TRACK 75 AUDIO
    TITLE "5:cjc030_11389"
    INDEX 01 01:02:34
  TRACK 76 AUDIO
    TITLE "0:"
    INDEX 01 01:03:37
  TRACK 77 AUDIO
    TITLE "6:cjc030_11390"
    INDEX 01 01:03:47
  TRACK 78 AUDIO
    TITLE "0:"
    INDEX 01 01:05:68
  TRACK 79 AUDIO
    TITLE "3:cjc030_11391"
    INDEX 01 01:06:40
  TRACK 80 AUDIO
    TITLE "0:"
    INDEX 01 01:07:45
  TRACK 81 AUDIO
    TITLE "4:cjc030_11392"
    INDEX 01 01:07:55
  TRACK 82 AUDIO
    TITLE "0:"
    INDEX 01 01:08:31
  TRACK 83 AUDIO
    TITLE "5:cjc030_11393"
    INDEX 01 01:08:40
  TRACK 84 AUDIO
    TITLE "0:"
    INDEX 01 01:09:46
